<svg width="30" height="33" viewBox="0 0 30 33" fill="none" xmlns="http://www.w3.org/2000/svg">
<path fill-rule="evenodd" clip-rule="evenodd" d="M18.2523 3.22222C18.2523 1.45 16.7892 0 15.001 0C13.2128 0 11.7497 1.45 11.7497 3.22222C11.7497 4.99444 13.2128 6.44444 15.001 6.44444C16.7892 6.44444 18.2523 4.99444 18.2523 3.22222ZM19.878 11.2778H28.0063C28.9004 11.2778 29.6319 10.5528 29.6319 9.66667C29.6319 8.78056 28.9004 8.05556 28.0063 8.05556H1.99577C1.10166 8.05556 0.370117 8.78056 0.370117 9.66667C0.370117 10.5528 1.10166 11.2778 1.99577 11.2778H10.1241V30.6111C10.1241 31.4972 10.8556 32.2222 11.7497 32.2222C12.6438 32.2222 13.3754 31.4972 13.3754 30.6111V22.5556H16.6267V30.6111C16.6267 31.4972 17.3582 32.2222 18.2523 32.2222C19.1464 32.2222 19.878 31.4972 19.878 30.6111V11.2778Z" fill="white"/>
</svg>
