<svg width="30" height="33" viewBox="0 0 30 33" fill="none" xmlns="http://www.w3.org/2000/svg">
<path d="M27.5772 5.5C26.4402 5.5 25.5224 6.42125 25.5224 7.5625V14.4375C25.5224 14.8225 25.221 15.125 24.8375 15.125C24.4539 15.125 24.1526 14.8225 24.1526 14.4375V3.4375C24.1526 2.29625 23.2348 1.375 22.0978 1.375C20.9608 1.375 20.043 2.29625 20.043 3.4375V14.4375C20.043 14.8225 19.7417 15.125 19.3581 15.125C18.9746 15.125 18.6732 14.8225 18.6732 14.4375V2.0625C18.6732 0.92125 17.7554 0 16.6184 0C15.4815 0 14.5637 0.92125 14.5637 2.0625V14.4237C14.5637 14.8087 14.2623 15.1112 13.8787 15.1112C13.4952 15.1112 13.1938 14.8087 13.1938 14.4237V6.1875C13.1938 5.04625 12.276 4.125 11.1391 4.125C10.0021 4.125 9.08429 5.04625 9.08429 6.1875V21.8762L3.44055 18.645C2.64604 18.1913 1.65975 18.315 1.00223 18.9475C0.180321 19.745 0.152925 21.065 0.961131 21.8762L10.2487 31.35C11.276 32.4087 12.6733 33 14.1527 33H24.1526C27.1799 33 29.6319 30.5388 29.6319 27.5V7.5625C29.6319 6.42125 28.7141 5.5 27.5772 5.5Z" fill="white"/>
</svg>
