<svg width="30" height="29" viewBox="0 0 30 29" fill="none" xmlns="http://www.w3.org/2000/svg">
<path d="M15.283 2.58194C12.5127 -0.154836 8.36424 -0.713083 5.0289 0.893581L10.0319 5.83612C10.5694 6.36713 10.5694 7.22493 10.0319 7.75594L7.84051 9.92086C7.30299 10.4655 6.4347 10.4655 5.89719 9.92086L0.894178 4.97832C-0.718362 8.28696 -0.153284 12.3581 2.61698 15.0949C5.18051 17.6274 8.92932 18.2946 12.1131 17.11L23.0838 27.9482C24.5034 29.3506 26.7913 29.3506 28.1971 27.9482C29.6167 26.5458 29.6167 24.2855 28.1971 22.8967L17.2815 12.0994C18.5494 8.91329 17.8879 5.15533 15.283 2.58194Z" fill="#016D66"/>
</svg>
