<svg width="35" height="38" viewBox="0 0 35 38" fill="none" xmlns="http://www.w3.org/2000/svg">
<path fill-rule="evenodd" clip-rule="evenodd" d="M29.4769 3.4H31.1922C33.0791 3.4 34.6229 4.93 34.6229 6.8V34C34.6229 35.87 33.0791 37.4 31.1922 37.4H3.74667C1.85979 37.4 0.315979 35.87 0.315979 34V6.8C0.315979 4.93 1.85979 3.4 3.74667 3.4H5.46202V1.7C5.46202 0.765 6.23393 0 7.17737 0C8.12081 0 8.89272 0.765 8.89272 1.7V3.4H26.0462V1.7C26.0462 0.765 26.8181 0 27.7615 0C28.705 0 29.4769 0.765 29.4769 1.7V3.4ZM5.46202 34H29.4769C30.4203 34 31.1922 33.235 31.1922 32.3V11.9H3.74667V32.3C3.74667 33.235 4.51858 34 5.46202 34Z" fill="white"/>
</svg>
