<svg width="35" height="34" viewBox="0 0 35 34" fill="none" xmlns="http://www.w3.org/2000/svg">
<path fill-rule="evenodd" clip-rule="evenodd" d="M0.352112 17C0.352112 7.616 8.03687 0 17.5056 0C26.9743 0 34.6591 7.616 34.6591 17C34.6591 26.384 26.9743 34 17.5056 34C8.03687 34 0.352112 26.384 0.352112 17ZM6.69892 18.19L12.857 24.293C13.526 24.956 14.6238 24.956 15.2757 24.293L28.2951 11.39C28.9641 10.727 28.9641 9.656 28.2951 8.993C27.6262 8.33 26.5455 8.33 25.8765 8.993L14.0749 20.689L9.11756 15.793C8.44858 15.13 7.36791 15.13 6.69892 15.793C6.37772 16.1106 6.19721 16.5418 6.19721 16.9915C6.19721 17.4412 6.37772 17.8724 6.69892 18.19Z" fill="white"/>
</svg>
