<svg width="32" height="32" viewBox="0 0 32 32" fill="none" xmlns="http://www.w3.org/2000/svg">
<path fill-rule="evenodd" clip-rule="evenodd" d="M3.55556 0H28.4444C30.4 0 32 1.6 32 3.55556V28.4444C32 30.4 30.4 32 28.4444 32H3.55556C1.6 32 0 30.4 0 28.4444V3.55556C0 1.6 1.6 0 3.55556 0ZM7.11111 23.1111C7.11111 24.0889 7.91111 24.8889 8.88889 24.8889C9.86667 24.8889 10.6667 24.0889 10.6667 23.1111V14.2222C10.6667 13.2444 9.86667 12.4444 8.88889 12.4444C7.91111 12.4444 7.11111 13.2444 7.11111 14.2222V23.1111ZM16 24.8889C15.0222 24.8889 14.2222 24.0889 14.2222 23.1111V8.88889C14.2222 7.91111 15.0222 7.11111 16 7.11111C16.9778 7.11111 17.7778 7.91111 17.7778 8.88889V23.1111C17.7778 24.0889 16.9778 24.8889 16 24.8889ZM21.3333 23.1111C21.3333 24.0889 22.1333 24.8889 23.1111 24.8889C24.0889 24.8889 24.8889 24.0889 24.8889 23.1111V19.5556C24.8889 18.5778 24.0889 17.7778 23.1111 17.7778C22.1333 17.7778 21.3333 18.5778 21.3333 19.5556V23.1111Z" fill="white"/>
</svg>
