<svg width="27" height="33" viewBox="0 0 27 33" fill="none" xmlns="http://www.w3.org/2000/svg">
<path fill-rule="evenodd" clip-rule="evenodd" d="M24.1394 23.7907L26.1373 25.7707C27.113 26.7377 26.4315 28.3953 25.0377 28.3953H1.54328C0.164905 28.3953 -0.51654 26.7377 0.459166 25.7707L2.45704 23.7907V14.5814C2.45704 9.43953 6.11207 5.14186 10.9751 4.09814V2.30232C10.9751 1.02837 12.0128 0 13.2982 0C14.5837 0 15.6213 1.02837 15.6213 2.30232V4.09814C20.4844 5.14186 24.1394 9.43953 24.1394 14.5814V23.7907ZM16.3802 29.9456C16.3802 31.634 15.0018 33 13.2982 33C11.5946 33 10.2162 31.634 10.2162 29.9456H16.3802ZM14.847 19.186V22.2558H11.7495V19.186H14.847ZM13.2982 16.1163C14.1501 16.1163 14.847 15.4256 14.847 14.5814V11.5116C14.847 10.6674 14.1501 9.97674 13.2982 9.97674C12.4464 9.97674 11.7495 10.6674 11.7495 11.5116V14.5814C11.7495 15.4256 12.4464 16.1163 13.2982 16.1163Z" fill="#016D66"/>
</svg>
