<svg width="44" height="11" viewBox="0 0 44 11" fill="none" xmlns="http://www.w3.org/2000/svg">
<path fill-rule="evenodd" clip-rule="evenodd" d="M5.5 0C2.475 0 0 2.475 0 5.5C0 8.525 2.475 11 5.5 11C8.525 11 11 8.525 11 5.5C11 2.475 8.525 0 5.5 0ZM38.5 0C35.475 0 33 2.475 33 5.5C33 8.525 35.475 11 38.5 11C41.525 11 44 8.525 44 5.5C44 2.475 41.525 0 38.5 0ZM16.5 5.5C16.5 2.475 18.975 0 22 0C25.025 0 27.5 2.475 27.5 5.5C27.5 8.525 25.025 11 22 11C18.975 11 16.5 8.525 16.5 5.5Z" fill="#016D66"/>
</svg>
