<svg width="22" height="26" viewBox="0 0 22 26" fill="none" xmlns="http://www.w3.org/2000/svg">
<path fill-rule="evenodd" clip-rule="evenodd" d="M15.5847 9H17.9913C19.3383 9 20.0043 10.62 19.0508 11.565L12.1036 18.45C11.5133 19.035 10.5598 19.035 9.96951 18.45L3.02235 11.565C2.06882 10.62 2.74992 9 4.09697 9H6.5035V1.5C6.5035 0.675 7.18459 0 8.01704 0H14.0712C14.9037 0 15.5847 0.675 15.5847 1.5V9ZM1.96288 25.8887C1.13043 25.8887 0.449341 25.2137 0.449341 24.3887C0.449341 23.5637 1.13043 22.8887 1.96288 22.8887H20.1254C20.9578 22.8887 21.6389 23.5637 21.6389 24.3887C21.6389 25.2137 20.9578 25.8887 20.1254 25.8887H1.96288Z" fill="#016D66"/>
</svg>
