<svg width="30" height="30" viewBox="0 0 30 30" fill="none" xmlns="http://www.w3.org/2000/svg">
<path fill-rule="evenodd" clip-rule="evenodd" d="M20.5945 19.3487H21.984L29.4592 26.8414C30.1803 27.5626 30.1803 28.7234 29.4592 29.4446L29.4416 29.4622C28.7204 30.1833 27.5596 30.1833 26.8384 29.4622L19.3457 21.987V20.5975L18.8708 20.105C16.4083 22.2156 13.0489 23.3061 9.4784 22.7081C4.58875 21.8814 0.684059 17.8009 0.0860441 12.876C-0.810979 5.43601 5.433 -0.825568 12.873 0.0890438C17.7978 0.687059 21.8784 4.59175 22.7051 9.4814C23.3031 13.0519 22.2126 16.4113 20.102 18.8738L20.5945 19.3487ZM3.51583 11.4337C3.51583 15.8133 7.05115 19.3487 11.4307 19.3487C15.8103 19.3487 19.3456 15.8133 19.3456 11.4337C19.3456 7.05416 15.8103 3.51884 11.4307 3.51884C7.05115 3.51884 3.51583 7.05416 3.51583 11.4337Z" fill="#016D66"/>
</svg>
