<svg width="31" height="19" viewBox="0 0 31 19" fill="none" xmlns="http://www.w3.org/2000/svg">
<path fill-rule="evenodd" clip-rule="evenodd" d="M13.9782 4.07143C13.9782 6.32429 12.1569 8.14286 9.88368 8.14286C7.61048 8.14286 5.77549 6.32429 5.77549 4.07143C5.77549 1.81857 7.61048 0 9.88368 0C12.1569 0 13.9782 1.81857 13.9782 4.07143ZM24.9333 4.07143C24.9333 6.32429 23.112 8.14286 20.8388 8.14286C18.5656 8.14286 16.7307 6.32429 16.7307 4.07143C16.7307 1.81857 18.5656 0 20.8388 0C23.112 0 24.9333 1.81857 24.9333 4.07143ZM9.88368 10.8571C6.69299 10.8571 0.297913 12.445 0.297913 15.6071V17.6429C0.297913 18.3893 0.91414 19 1.66731 19H18.1C18.8532 19 19.4694 18.3893 19.4694 17.6429V15.6071C19.4694 12.445 13.0744 10.8571 9.88368 10.8571ZM19.5106 10.925C19.9899 10.8843 20.4418 10.8571 20.8389 10.8571C24.0296 10.8571 30.4246 12.445 30.4246 15.6071V17.6429C30.4246 18.3893 29.8084 19 29.0552 19H21.9618C22.1124 18.5793 22.2083 18.1179 22.2083 17.6429V15.6071C22.2083 13.6121 21.1264 12.1057 19.5653 10.9793C19.5612 10.9752 19.557 10.9698 19.5525 10.964C19.5421 10.9505 19.5297 10.9345 19.5106 10.925Z" fill="white"/>
</svg>
