<svg width="16" height="15" viewBox="0 0 16 15" fill="none" xmlns="http://www.w3.org/2000/svg">
<path d="M13.8 5.72727H10.0182V2.18182C10.0182 1.20682 9.16727 0.409088 8.12727 0.409088C7.08727 0.409088 6.23636 1.20682 6.23636 2.18182V5.72727H2.45454C1.41454 5.72727 0.563629 6.525 0.563629 7.5C0.563629 8.475 1.41454 9.27272 2.45454 9.27272H6.23636V12.8182C6.23636 13.7932 7.08727 14.5909 8.12727 14.5909C9.16727 14.5909 10.0182 13.7932 10.0182 12.8182V9.27272H13.8C14.84 9.27272 15.6909 8.475 15.6909 7.5C15.6909 6.525 14.84 5.72727 13.8 5.72727Z" fill="white"/>
</svg>
